<svg width="275" height="54" viewBox="0 0 275 54" fill="none" xmlns="http://www.w3.org/2000/svg">
<rect x="2.5" y="2.5" width="270" height="49" fill="#C4C4C4" stroke="black" stroke-width="5"/>
<path d="M24.3009 37H19.7483L26.6851 16.906H32.1599L39.0868 37H34.5343L29.501 21.4978H29.344L24.3009 37ZM24.0163 29.1017H34.7698V32.418H24.0163V29.1017ZM41.5054 16.906H46.7447L52.2784 30.4067H52.5139L58.0476 16.906H63.2869V37H59.1661V23.9212H58.9993L53.7992 36.9019H50.9931L45.793 23.8722H45.6262V37H41.5054V16.906ZM70.2507 37H65.6981L72.6349 16.906H78.1097L85.0366 37H80.4841L75.4508 21.4978H75.2938L70.2507 37ZM69.9661 29.1017H80.7195V32.418H69.9661V29.1017ZM87.2393 37V34.4784L97.2667 20.4087H87.2197V16.906H102.604V19.4276L92.5669 33.4973H102.624V37H87.2393ZM110.132 16.906V37H105.884V16.906H110.132ZM130.434 16.906V37H126.765L118.023 24.353H117.876V37H113.627V16.906H117.356L126.029 29.5432H126.206V16.906H130.434ZM147.269 23.4012C147.131 22.9237 146.938 22.5019 146.69 22.1356C146.441 21.7627 146.137 21.4487 145.777 21.1936C145.424 20.932 145.018 20.7325 144.561 20.5951C144.109 20.4578 143.609 20.3891 143.059 20.3891C142.033 20.3891 141.13 20.6442 140.351 21.1544C139.58 21.6646 138.978 22.407 138.546 23.3816C138.114 24.3497 137.899 25.5336 137.899 26.9334C137.899 28.3332 138.111 29.5236 138.536 30.5048C138.962 31.4859 139.563 32.2349 140.342 32.7516C141.12 33.2618 142.039 33.5169 143.099 33.5169C144.06 33.5169 144.881 33.3468 145.561 33.0067C146.248 32.66 146.771 32.1727 147.131 31.5448C147.498 30.9169 147.681 30.1745 147.681 29.3176L148.544 29.4451H143.364V26.2466H151.772V28.7779C151.772 30.544 151.399 32.0615 150.654 33.3305C149.908 34.5929 148.881 35.5675 147.573 36.2543C146.265 36.9346 144.767 37.2747 143.079 37.2747C141.195 37.2747 139.54 36.8594 138.114 36.0287C136.689 35.1914 135.577 34.0042 134.779 32.4671C133.987 30.9234 133.591 29.0919 133.591 26.9726C133.591 25.3439 133.827 23.8918 134.298 22.6163C134.775 21.3343 135.442 20.2485 136.299 19.3589C137.156 18.4693 138.154 17.7923 139.292 17.3279C140.43 16.8635 141.663 16.6313 142.991 16.6313C144.129 16.6313 145.189 16.7981 146.17 17.1317C147.151 17.4587 148.021 17.9231 148.78 18.5249C149.545 19.1267 150.17 19.8429 150.654 20.6736C151.138 21.4978 151.448 22.407 151.586 23.4012H147.269ZM161.358 37V16.906H169.403C170.882 16.906 172.115 17.1251 173.102 17.5634C174.09 18.0016 174.832 18.6099 175.33 19.3883C175.827 20.1602 176.075 21.0497 176.075 22.0571C176.075 22.842 175.918 23.5321 175.604 24.1273C175.29 24.716 174.859 25.2 174.309 25.5794C173.766 25.9522 173.145 26.2171 172.445 26.3741V26.5704C173.21 26.6031 173.926 26.8189 174.594 27.2179C175.267 27.6169 175.814 28.1762 176.232 28.8957C176.651 29.6087 176.86 30.459 176.86 31.4467C176.86 32.5129 176.595 33.4646 176.065 34.3018C175.542 35.1325 174.767 35.7899 173.74 36.2739C172.713 36.758 171.447 37 169.943 37H161.358ZM165.606 33.5267H169.07C170.254 33.5267 171.117 33.3011 171.66 32.8497C172.203 32.3919 172.474 31.7835 172.474 31.0248C172.474 30.4688 172.34 29.9782 172.072 29.5531C171.804 29.1279 171.421 28.7943 170.924 28.5523C170.434 28.3103 169.848 28.1893 169.168 28.1893H165.606V33.5267ZM165.606 25.3145H168.756C169.338 25.3145 169.855 25.2131 170.306 25.0103C170.764 24.801 171.124 24.5067 171.385 24.1273C171.653 23.7479 171.788 23.2933 171.788 22.7635C171.788 22.0374 171.529 21.452 171.012 21.0072C170.502 20.5624 169.776 20.34 168.834 20.34H165.606V25.3145ZM179.625 37V16.906H193.164V20.4087H183.873V25.1967H192.468V28.6995H183.873V33.4973H193.204V37H179.625ZM200.005 37H195.453L202.39 16.906H207.865L214.791 37H210.239L205.206 21.4978H205.049L200.005 37ZM199.721 29.1017H210.474V32.418H199.721V29.1017ZM233.995 23.9409H229.698C229.619 23.3849 229.459 22.891 229.217 22.4593C228.975 22.0211 228.664 21.6482 228.285 21.3408C227.905 21.0334 227.467 20.7979 226.97 20.6344C226.479 20.4709 225.946 20.3891 225.371 20.3891C224.331 20.3891 223.425 20.6475 222.653 21.1642C221.881 21.6744 221.283 22.4201 220.857 23.4012C220.432 24.3759 220.22 25.5598 220.22 26.953C220.22 28.3855 220.432 29.589 220.857 30.5636C221.289 31.5383 221.891 32.2741 222.663 32.7712C223.435 33.2684 224.327 33.5169 225.341 33.5169C225.91 33.5169 226.437 33.4417 226.921 33.2912C227.412 33.1408 227.846 32.9217 228.226 32.6339C228.605 32.3395 228.919 31.983 229.168 31.5644C229.423 31.1458 229.599 30.6683 229.698 30.1319L233.995 30.1516C233.884 31.0738 233.606 31.9634 233.161 32.8203C232.723 33.6706 232.131 34.4327 231.385 35.1064C230.646 35.7736 229.763 36.3034 228.736 36.6958C227.716 37.0818 226.561 37.2747 225.273 37.2747C223.48 37.2747 221.878 36.8692 220.465 36.0581C219.059 35.247 217.947 34.0729 217.129 32.5358C216.318 30.9986 215.912 29.1377 215.912 26.953C215.912 24.7618 216.324 22.8976 217.149 21.3604C217.973 19.8233 219.091 18.6525 220.504 17.8479C221.917 17.0368 223.507 16.6313 225.273 16.6313C226.437 16.6313 227.516 16.7948 228.51 17.1219C229.511 17.4489 230.397 17.9264 231.169 18.5544C231.941 19.1757 232.569 19.9378 233.053 20.8404C233.544 21.7431 233.858 22.7766 233.995 23.9409ZM237.042 37V16.906H241.29V25.1967H249.914V16.906H254.153V37H249.914V28.6995H241.29V37H237.042Z" fill="black"/>
</svg>
